<svg width="24" height="24" viewBox="0 0 24 24" fill="none" xmlns="http://www.w3.org/2000/svg">
<path d="M12 24C18.6274 24 24 18.6274 24 12C24 5.37258 18.6274 0 12 0C5.37258 0 0 5.37258 0 12C0 18.6274 5.37258 24 12 24Z" fill="#F5F2E9"/>
<g clip-path="url(#clip0_19871_22513)">
<path d="M17.6276 6.00077C17.6257 6.123 17.6228 6.24524 17.615 6.36747C17.5453 7.48996 17.127 8.58713 16.4311 9.47051C16.1643 9.81919 15.838 10.1148 15.5312 10.4269C13.6811 12.278 11.8301 14.1275 9.98008 15.979C9.44635 16.5059 9.14053 17.2486 9.13956 17.998C8.21332 17.9985 7.28708 17.999 6.36133 17.9975C6.36328 17.8914 6.36571 17.7857 6.3701 17.68C6.43973 16.3438 7.00999 15.0411 7.94499 14.0842C9.9645 12.0637 11.9855 10.0442 14.005 8.0232C14.5407 7.4958 14.8475 6.7517 14.8489 6.00077C15.7752 6.00028 16.7014 5.99931 17.6276 6.00077Z" fill="black"/>
<path d="M17.4762 16.6961C17.577 17.1222 17.6257 17.56 17.6277 17.9978C16.7014 17.9998 15.7747 17.9954 14.8485 17.9998C14.8451 17.4339 14.677 16.8685 14.3566 16.401C13.985 15.8468 13.4124 15.4373 12.7734 15.2503C13.4737 14.5524 14.1706 13.8517 14.8714 13.1543C16.1696 13.9198 17.1344 15.2274 17.4762 16.6961Z" fill="black"/>
<path d="M11.2151 8.74755C10.5153 9.44588 9.81792 10.1462 9.11715 10.844C7.97129 10.1656 7.08011 9.06944 6.65644 7.80621C6.4597 7.22573 6.3623 6.61311 6.36035 6.00049C7.28708 6 8.21331 6.00049 9.14004 6C9.1415 6.64574 9.36551 7.28806 9.77311 7.78966C10.1403 8.24742 10.6521 8.58344 11.2151 8.74755Z" fill="black"/>
<path d="M10.6036 6C10.6013 6.20271 10.6432 6.4057 10.7348 6.59099C11.0124 7.21627 11.7891 7.55083 12.4344 7.31902C12.9968 7.14512 13.385 6.57867 13.3862 6H10.6036Z" fill="black"/>
<path d="M13.3872 17.9978C13.3881 17.8697 13.3702 17.741 13.3313 17.616C13.2821 17.4426 13.1988 17.2795 13.0873 17.1383C12.6821 16.6001 11.8689 16.4458 11.2938 16.7964C10.8645 17.0348 10.6093 17.5156 10.6045 17.9978H13.3872Z" fill="black"/>
</g>
<defs>
<clipPath id="clip0_19871_22513">
<rect width="12" height="12" fill="white" transform="translate(6 6)"/>
</clipPath>
</defs>
</svg>
