<svg width="201" height="200" viewBox="0 0 201 200" fill="none" xmlns="http://www.w3.org/2000/svg">
<g clip-path="url(#clip0_1_22)">
<path d="M64.4456 84.9057H82.0331C86.43 79.4969 93.0881 76.1006 100.626 76.1006C108.163 76.1006 119.721 82.6415 123.112 91.8239H84.6712H62.1844C61.5562 94.5912 61.305 97.3585 61.305 100.252C61.305 122.013 78.8925 139.623 100.5 139.623C122.107 139.623 129.645 130.44 135.926 117.107H117.711C113.314 121.635 107.158 124.528 100.374 124.528C89.445 124.528 80.1487 117.107 77.2594 107.044H123.489H138.941C139.318 104.906 139.569 102.642 139.569 100.377C139.569 78.6164 121.982 61.0063 100.374 61.0063C78.7669 61.0063 70.2244 70.9434 64.32 85.0314L64.4456 84.9057Z" fill="url(#paint0_linear_1_22)"/>
<path d="M0.628128 100C0.628128 152.704 41.4563 196.101 92.9625 200V154.214C66.5813 150.566 46.1044 127.673 46.1044 100.126C46.1044 72.5786 66.5813 49.6855 92.9625 46.0377V0C41.4563 3.89937 0.628128 47.2956 0.628128 100ZM15.7031 100C15.7031 61.0063 42.0844 27.9245 77.7619 17.9874V34.0881C50.5013 43.522 30.9038 69.5597 30.9038 100.126C30.9038 130.692 50.5013 156.604 77.7619 166.164V182.138C41.9588 172.201 15.7031 139.245 15.7031 100.126V100Z" fill="url(#paint1_linear_1_22)"/>
<path d="M108.038 46.0377C134.419 49.6855 154.896 72.5786 154.896 100.126C154.896 127.673 134.419 150.566 108.038 154.214V200C159.544 196.101 200.372 152.704 200.372 100C200.372 47.2956 159.544 3.89937 108.038 0V46.0377ZM123.113 166.038C150.373 156.604 169.971 130.566 169.971 100C169.971 69.434 150.373 43.3962 123.113 33.9623V17.8616C158.916 27.7987 185.297 60.7547 185.297 99.8742C185.297 138.994 158.916 171.95 123.113 181.887V165.912V166.038Z" fill="url(#paint2_linear_1_22)"/>
</g>
<defs>
<linearGradient id="paint0_linear_1_22" x1="100.5" y1="-1.8868" x2="100.5" y2="194.214" gradientUnits="userSpaceOnUse">
<stop stop-color="#009AFF"/>
<stop offset="0.5" stop-color="#046CFE"/>
<stop offset="1" stop-color="#C804DD"/>
</linearGradient>
<linearGradient id="paint1_linear_1_22" x1="46.8581" y1="-1.88679" x2="46.8581" y2="194.214" gradientUnits="userSpaceOnUse">
<stop stop-color="#009AFF"/>
<stop offset="0.5" stop-color="#046CFE"/>
<stop offset="1" stop-color="#C804DD"/>
</linearGradient>
<linearGradient id="paint2_linear_1_22" x1="154.142" y1="-1.88679" x2="154.142" y2="194.214" gradientUnits="userSpaceOnUse">
<stop stop-color="#009AFF"/>
<stop offset="0.5" stop-color="#046CFE"/>
<stop offset="1" stop-color="#C804DD"/>
</linearGradient>
<clipPath id="clip0_1_22">
<rect width="201" height="200" fill="white"/>
</clipPath>
</defs>
</svg>
