<svg width="1024" height="1024" viewBox="0 0 1024 1024" fill="none" xmlns="http://www.w3.org/2000/svg">
<circle cx="512" cy="512" r="340" fill="#039393"/>
<path fill-rule="evenodd" clip-rule="evenodd" d="M555.406 526.758C552.982 526.94 540.456 527.688 512.515 527.688C490.292 527.688 474.513 527.021 468.978 526.758C383.095 522.98 318.991 508.03 318.991 490.13C318.991 472.231 383.095 457.301 468.978 453.462V511.869C474.594 512.273 490.676 513.222 512.899 513.222C539.567 513.222 552.921 512.111 555.325 511.889V453.502C641.026 457.321 704.989 472.271 704.989 490.13C704.989 507.99 641.046 522.94 555.325 526.738L555.406 526.758ZM555.406 447.462V395.197H675.008V315.496H349.376V395.197H468.957V447.441C371.761 451.906 298.666 471.16 298.666 494.232C298.666 517.303 371.761 536.537 468.957 541.022V708.504H555.386V540.961C652.36 536.496 725.333 517.263 725.333 494.211C725.333 471.16 652.421 451.927 555.386 447.441L555.406 447.462Z" fill="white"/>
<path d="M106.339 536C118.297 741.313 282.687 905.702 488 917.66V965.733C256.169 953.669 70.3308 767.831 58.2656 536H106.339ZM965.734 536C953.669 767.831 767.831 953.668 536 965.733V917.66C741.313 905.702 905.703 741.313 917.661 536H965.734ZM488 106.339C282.687 118.297 118.297 282.687 106.339 488H58.2646C70.3296 256.169 256.169 70.3307 488 58.2656V106.339ZM536 58.2656C767.831 70.3308 953.669 256.169 965.734 488H917.661C905.703 282.687 741.313 118.297 536 106.339V58.2656Z" fill="#039393"/>
</svg>
