<svg width="150" height="150" viewBox="0 0 150 150" fill="none" xmlns="http://www.w3.org/2000/svg">
<g clip-path="url(#clip0_502_421)">
<path fill-rule="evenodd" clip-rule="evenodd" d="M143.667 77.0449C143.653 77.5095 143.021 77.6321 142.838 77.2039C142.76 77.019 142.68 76.8338 142.598 76.6481C142.449 76.3088 142.491 75.9142 142.714 75.6176C142.759 75.5569 142.853 75.4339 142.965 75.2876C143.266 74.8943 143.699 74.9531 143.699 75.3896C143.699 75.9623 143.686 76.458 143.667 77.0449ZM140.34 67.9522C139.828 68.8759 138.514 68.9183 137.945 68.028C137.857 67.8904 137.768 67.7528 137.678 67.6144C135.628 64.4636 133.268 61.371 130.632 58.3654C129.985 57.6278 130.514 56.4694 131.496 56.4686H131.519C137.678 56.4686 140.907 57.9911 141.893 59.85C142.715 61.4048 142.463 64.1239 140.34 67.9522ZM138.964 100.182C138.633 101.023 138.288 101.859 137.924 102.686C137.868 102.8 137.814 102.916 137.756 103.029C135.489 107.395 131.685 110.833 126.602 113.226C125.462 113.762 124.213 112.718 124.553 111.504C126.241 105.459 127.519 98.9029 128.346 92.0303C128.501 90.7489 129.132 89.5725 130.108 88.728C132.199 86.9183 134.151 85.1111 135.946 83.3171L135.966 83.2969C136.85 82.4145 138.357 82.7944 138.717 83.991C140.491 89.8924 140.59 95.3888 138.964 100.182ZM125.146 122.006C124.629 122.559 124.102 123.106 123.564 123.644C122.627 124.58 121.668 125.486 120.688 126.361C120.069 126.912 119.134 126.223 119.484 125.471C119.584 125.257 119.683 125.041 119.782 124.823C120.193 123.915 120.591 122.982 120.978 122.033C121.07 121.809 121.263 121.641 121.497 121.581C122.472 121.334 123.422 121.061 124.348 120.762C125.098 120.521 125.686 121.43 125.146 122.006ZM115 116.55C112.948 116.847 110.79 117.039 108.532 117.119C103.025 117.312 97.2007 116.836 91.2184 115.734C90.489 115.6 90.3487 114.613 91.0102 114.279C92.3152 113.618 93.6206 112.942 94.9256 112.25C104.08 107.394 112.621 102.087 120.098 96.6461C120.659 96.2381 121.431 96.7196 121.317 97.4044C120.281 103.64 118.845 109.51 117.042 114.839C116.734 115.747 115.948 116.412 115 116.55ZM112.884 124.858C107.976 134.517 101.931 139.94 96.0724 139.83C89.7045 139.717 83.3546 133.081 78.6525 121.626L78.6469 121.613C78.3484 120.886 78.6915 120.054 79.4115 119.741C79.4614 119.718 79.5112 119.697 79.5611 119.675C79.8697 119.54 80.2163 119.516 80.541 119.608C89.337 122.078 98.0036 123.367 106.124 123.367C107.006 123.367 107.882 123.352 108.751 123.322C109.768 123.285 110.769 123.228 111.753 123.15C112.665 123.078 113.299 124.041 112.884 124.858ZM83.8204 143.226C80.9025 143.601 77.9411 143.793 74.9509 143.793C61.5881 143.793 48.807 140.004 37.8337 132.933C37.0788 132.446 37.3996 131.274 38.2969 131.232C38.4829 131.224 38.6569 131.214 38.8099 131.205C41.5984 131.023 44.6561 130.614 47.9692 129.976C55.0166 128.619 62.8507 126.292 71.0535 123.159C71.7889 122.878 72.6097 123.243 72.9094 123.971L72.9146 123.984C76.0935 131.729 80.0059 137.581 84.3986 141.303C85.1246 141.92 84.7643 143.104 83.8204 143.226ZM44.0644 95.0254C50.1221 90.0892 57.2201 85.164 65.0062 80.5009C65.1735 90.4661 66.2655 100.034 68.1982 108.675C65.3104 107.443 62.4315 106.086 59.5774 104.602C54.0491 101.728 48.8482 98.5076 44.0644 95.0254ZM25.2245 121.726C23.7793 118.998 25.6472 112.678 35.1361 103.072L35.1408 103.068C36.1317 102.066 36.0367 100.422 34.9305 99.5498C34.5503 99.2513 34.1729 98.949 33.7981 98.6467C32.853 97.8825 31.4853 97.9526 30.6272 98.8125C30.4392 99.0008 30.2989 99.1425 30.2578 99.1849C25.5144 104.057 22.1946 108.567 20.3348 112.623C19.8076 113.773 18.2155 113.897 17.5185 112.842C10.1569 101.706 6.20284 88.6579 6.20284 74.9996C6.20284 70.1168 6.70972 65.3115 7.6959 60.6439C7.84489 59.9377 8.84047 59.8927 9.04946 60.5835C10.4758 65.2954 12.7973 70.1696 16.0052 75.0982C20.3234 81.7339 26.0179 88.113 32.7661 93.9641C35.0694 95.9614 37.5023 97.8934 40.0395 99.7571C45.1826 103.533 50.7713 107.019 56.7173 110.11C59.3528 111.481 61.9196 112.788 64.5487 113.973C66.012 114.632 67.6777 114.683 69.1714 114.096C70.4111 113.611 71.6595 113.106 72.9154 112.58C74.2811 112.01 75.0217 110.52 74.6599 109.084C74.6145 108.904 74.5789 108.761 74.5586 108.675C72.4886 99.9581 71.3378 90.1444 71.2024 79.8656C71.2013 79.7434 71.1979 79.6215 71.1964 79.4981C71.1904 78.936 71.1937 78.3701 71.1836 77.8095C71.1802 77.631 71.1855 77.328 71.1878 77.1487C71.1889 77.0771 71.1878 77.0062 71.1878 76.9354C71.1911 76.2919 71.1982 75.6484 71.2099 75.003C71.2414 73.2397 71.3048 71.4896 71.3959 69.7534C72.0341 57.3499 74.1326 45.6968 77.4769 35.8928C77.7862 34.9856 77.3029 34.0008 76.3961 33.6912C75.5126 33.389 74.6295 33.1003 73.7479 32.8238C72.8561 32.5438 71.9029 33.0255 71.6014 33.9111C67.977 44.5583 65.7405 57.1897 65.1439 70.5566C65.0678 72.2524 64.1456 73.7955 62.6861 74.661C54.7747 79.353 47.5088 84.327 41.2316 89.3404C39.924 90.3851 38.0561 90.3454 36.7916 89.2481C30.5005 83.79 25.2057 77.8616 21.203 71.7109C13.3372 59.625 11.468 48.2393 15.9412 39.6566C15.9533 39.6364 15.9641 39.6154 15.9756 39.5959C16.5458 38.649 17.139 37.7145 17.7565 36.7933C22.8963 29.9854 32.4627 26.0402 45.15 25.5944C45.9529 25.566 46.7614 25.5519 47.577 25.5519C55.359 25.5519 63.7106 26.8368 72.2048 29.2893C72.3908 29.3433 72.579 29.3973 72.765 29.4519C72.9086 29.4944 73.0523 29.5342 73.1955 29.5773C75.1586 30.1642 77.127 30.8151 79.098 31.5247C79.1438 31.5408 79.1903 31.5577 79.236 31.5739C79.7498 31.7594 80.2627 31.9496 80.7757 32.1432C80.9362 32.2039 81.0971 32.2653 81.2576 32.3273C81.4121 32.3867 81.5663 32.444 81.7215 32.5041C85.8698 34.1108 90.0124 35.9818 94.1055 38.1105C102.028 42.2291 109.28 47.0572 115.59 52.3541C103.547 55.1149 89.5474 60.441 75.4721 67.6219C74.823 67.9537 74.3955 68.6066 74.3543 69.3353C74.3051 70.2079 74.2406 71.9629 74.1941 73.3579C74.1649 74.2335 75.0904 74.8136 75.8659 74.406L75.8737 74.4015C89.8095 67.0789 103.718 61.6057 115.662 58.7137C117.894 58.1734 119.339 56.0276 119.026 53.751C118.806 52.1606 118.559 50.595 118.285 49.0571C117.941 47.1255 116.885 45.3979 115.325 44.2095C109.731 39.9454 103.565 36.0338 96.9656 32.6019C92.5181 30.2896 88.005 28.2634 83.4829 26.5353C82.5154 26.1657 82.101 25.0217 82.6058 24.1172C87.2651 15.7768 92.8065 11.1059 98.205 11.1059C98.2612 11.1059 98.3171 11.1059 98.373 11.1072C104.741 11.2212 111.091 17.8563 115.793 29.3116C118.173 35.1104 120.018 41.7975 121.278 49.0646L121.259 49.047C121.796 52.1486 122.23 55.3538 122.552 58.6421C122.524 58.6598 122.494 58.6751 122.466 58.6927C122.504 58.731 122.544 58.7696 122.582 58.8086C123.115 64.326 123.341 70.0718 123.236 75.9345C123.17 79.6429 122.972 83.3003 122.652 86.8785C114.133 93.768 103.599 100.625 92.0205 106.764C88.2154 108.783 84.411 110.661 80.6434 112.391C80.5849 112.418 80.5268 112.444 80.4683 112.471C80.1806 112.602 79.8919 112.736 79.6043 112.866L79.5975 112.864C76.4756 114.277 73.3838 115.584 70.3429 116.778C70.1711 116.846 70.002 116.913 69.8306 116.98C69.6169 117.064 69.4035 117.146 69.1905 117.228C68.6801 117.424 68.1716 117.617 67.665 117.806C67.5255 117.858 67.3852 117.913 67.2457 117.964C66.6304 118.193 66.018 118.414 65.4082 118.633C65.3317 118.66 65.2556 118.689 65.1802 118.716C58.6639 121.038 52.4539 122.792 46.797 123.881C33.1274 126.514 26.6906 124.494 25.2245 121.726ZM35.0424 18.9706C46.6121 10.6802 60.4376 6.20685 74.9509 6.20685C78.7819 6.20685 82.5634 6.5205 86.2687 7.13227C87.261 7.29619 87.594 8.56361 86.8024 9.18484C83.2118 12.0016 79.8757 16.1694 76.9234 21.5743C76.2026 22.8929 74.6745 23.5378 73.2292 23.1304C63.4477 20.375 53.8241 19.0786 44.9325 19.3909C41.6524 19.5062 38.5462 19.8387 35.6282 20.377C34.8085 20.5281 34.365 19.4556 35.0424 18.9706ZM129.411 69.1073C129.391 68.3186 130.403 67.9819 130.859 68.6243C131.421 69.4125 131.962 70.2052 132.48 71.0017C133.169 72.0607 133.811 73.1137 134.406 74.16C134.778 74.8121 134.689 75.6304 134.183 76.1846C133.38 77.067 132.51 77.979 131.564 78.9248C131.218 79.2694 130.867 79.6148 130.508 79.9609C130.063 80.391 129.317 80.0633 129.341 79.4441C129.385 78.3154 129.417 77.1829 129.438 76.0451C129.48 73.7141 129.47 71.3996 129.411 69.1073ZM122.282 25.106C122.714 25.5161 123.141 25.933 123.564 26.3559C130.189 32.985 135.291 40.731 138.703 49.1674C139.048 50.0179 138.326 50.9081 137.424 50.7454C135.449 50.3906 133.227 50.2324 130.768 50.2733C129.063 50.3018 127.581 49.1066 127.282 47.427C125.945 39.927 124.013 32.9991 121.531 26.9528C121.389 26.6082 121.247 26.2675 121.101 25.9303C120.786 25.1944 121.701 24.5543 122.282 25.106ZM148.284 59.4008C145.322 45.3191 138.357 32.3806 127.949 21.9661C113.793 7.80071 94.9718 0 74.9509 0C54.9311 0 36.1088 7.80071 21.9526 21.9661C18.5094 25.4116 15.4471 29.1342 12.7771 33.0815C11.983 34.1391 11.2719 35.2561 10.6396 36.425C3.70404 47.9573 0 61.1936 0 74.9996C0 95.0333 7.79633 113.867 21.9526 128.032C36.1088 142.198 54.9311 150 74.9509 150C94.9718 150 113.793 142.198 127.949 128.032C134.631 121.347 139.893 113.622 143.59 105.221C144.042 104.291 144.436 103.337 144.775 102.365C148.14 93.7612 149.902 84.5164 149.902 74.9996C149.902 69.7613 149.365 64.6076 148.324 59.595C148.311 59.5305 148.298 59.4656 148.284 59.4008Z" fill="#7C2BF8"/>
</g>
<defs>
<clipPath id="clip0_502_421">
<rect width="150" height="150" fill="white"/>
</clipPath>
</defs>
</svg>
